<svg version="1" xmlns="http://www.w3.org/2000/svg" width="526.667" height="526.667" viewBox="0 0 395.000000 395.000000"><path d="M169.3 1.6c-33.2 4.8-65.7 18.5-92.8 39.3C68 47.3 50.9 64.1 43.7 73 20.7 101.5 5.6 137.2 1 174c-1.3 10.9-1.3 36.1 0 47 4.4 35.2 18.3 69.3 39.9 97.5 6.4 8.5 23.3 25.6 32 32.7 28.2 22.7 61.7 37.3 97 42.2 14.5 2.1 40.7 2.1 55.2 0 55.3-7.7 105.3-39.1 137-86 16-23.8 27.3-53.4 31.3-82.3 2.1-14.5 2.1-40.7 0-55.2-8.7-62.5-47.5-117.7-103.6-147.3-20.4-10.9-42.1-17.9-64.7-21-13.6-1.9-42.7-2-55.8 0zM227.5 14C324.1 29.2 392.8 118.4 383 216.1c-4.4 43.4-24.9 85.5-56.1 115.4-56.8 54.4-139.9 67.4-210.4 33-21.4-10.5-37.9-22.6-54-39.7-12.4-13.4-20.9-25.3-29-41.1-33.6-65-27.2-140.5 16.8-199.2C58.6 73.4 77.7 54.8 88.7 47c41.7-29.4 89.2-40.7 138.8-33z"/><path d="M209.7 129.7c-.6 1.1-35.7 131.7-35.7 133 0 1.3 11 3.7 12 2.6.4-.4 4.6-15.4 9.4-33.3 4.7-17.9 12.7-47.5 17.6-65.9 4.9-18.3 8.7-33.7 8.5-34.1-.4-.7-8.3-3-10.4-3-.5 0-1.2.3-1.4.7zM120.2 170.3C98.7 191.8 95 195.9 95 198.5c0 2.5 3.7 6.6 25.2 28.2l25.3 25.3 4.5-4.5 4.5-4.5-22.3-22.3-22.2-22.2 22.5-22.5 22.5-22.5-4.2-4.2c-2.3-2.4-4.5-4.3-4.8-4.3-.3 0-11.9 11.4-25.8 25.3zM245.2 149.3l-4.2 4.2 22.5 22.5 22.5 22.5-22.6 22-22.6 22 4.7 4.9 4.7 4.9 25.4-25.4c21.8-21.8 25.4-25.9 25.4-28.4 0-2.6-3.6-6.6-25.2-28.2-13.9-13.9-25.5-25.3-25.8-25.3-.3 0-2.5 1.9-4.8 4.3z"/></svg>